<svg width="91" height="90" viewBox="0 0 91 90" fill="none" xmlns="http://www.w3.org/2000/svg">
<path d="M45.51 21.9252C32.5987 21.9252 22.1841 32.2275 22.1841 45C22.1841 57.7725 32.5987 68.0749 45.51 68.0749C58.4217 68.0749 68.8364 57.7725 68.8364 45C68.8364 32.2275 58.4217 21.9252 45.51 21.9252ZM45.51 60.0018C37.1662 60.0018 30.3452 53.274 30.3452 45C30.3452 36.726 37.1462 29.9983 45.51 29.9983C53.8742 29.9983 60.6752 36.726 60.6752 45C60.6752 53.274 53.8538 60.0018 45.51 60.0018ZM75.2313 20.9813C75.2313 23.9736 72.7949 26.3634 69.7904 26.3634C66.7655 26.3634 64.3498 23.9535 64.3498 20.9813C64.3498 18.009 66.7859 15.5991 69.7904 15.5991C72.7949 15.5991 75.2313 18.009 75.2313 20.9813ZM90.6804 26.4437C90.3352 19.2341 88.6705 12.8478 83.3312 7.5862C78.0122 2.32456 71.5567 0.677788 64.2685 0.3163C56.757 -0.105433 34.243 -0.105433 26.7316 0.3163C19.4638 0.657706 13.008 2.30448 7.66879 7.56613C2.32956 12.8277 0.685164 19.214 0.319744 26.4237C-0.106581 33.8541 -0.106581 56.1258 0.319744 63.5562C0.664865 70.7659 2.32956 77.1523 7.66879 82.414C13.008 87.6754 19.4435 89.3224 26.7316 89.6839C34.243 90.1054 56.757 90.1054 64.2685 89.6839C71.5567 89.3425 78.0122 87.6955 83.3312 82.414C88.6501 77.1523 90.3148 70.7659 90.6804 63.5562C91.1065 56.1258 91.1065 33.8742 90.6804 26.4437ZM80.9764 71.529C79.393 75.4653 76.3275 78.4978 72.3281 80.0842C66.3393 82.4341 52.1285 81.8917 45.51 81.8917C38.8919 81.8917 24.6609 82.414 18.6923 80.0842C14.7133 78.5179 11.6478 75.4855 10.044 71.529C7.66879 65.6046 8.21691 51.5469 8.21691 45C8.21691 38.4531 7.68908 24.3752 10.044 18.471C11.6275 14.5348 14.693 11.5023 18.6923 9.91576C24.6812 7.5661 38.8919 8.10835 45.51 8.10835C52.1285 8.10835 66.3594 7.5862 72.3281 9.91576C76.3072 11.4822 79.3727 14.5147 80.9764 18.471C83.3515 24.3953 82.8034 38.4531 82.8034 45C82.8034 51.5469 83.3515 65.6247 80.9764 71.529Z" fill="url(#paint0_linear_1_62)"/>
<defs>
<linearGradient id="paint0_linear_1_62" x1="45.5" y1="0" x2="45.5" y2="90" gradientUnits="userSpaceOnUse">
<stop stop-color="#410A9B"/>
<stop offset="1" stop-color="#D93535" stop-opacity="0.7"/>
</linearGradient>
</defs>
</svg>
