<svg width="97" height="88" viewBox="0 0 97 88" fill="none" xmlns="http://www.w3.org/2000/svg">
<rect width="97" height="88" fill="white"/>
<path d="M87.0294 21.9312C87.0911 22.8936 87.0911 23.8563 87.0911 24.8187C87.0911 54.1749 67.0878 88 30.528 88C19.2646 88 8.80146 84.3562 0 78.0314C1.60032 78.2376 3.13887 78.3062 4.80076 78.3062C14.0944 78.3062 22.6498 74.8 29.4817 68.8189C20.7418 68.6124 13.4175 62.2189 10.894 53.4186C12.125 53.6249 13.3559 53.7624 14.6486 53.7624C16.4334 53.7624 18.2184 53.4873 19.8801 53.0062C10.771 50.9435 3.93894 42.0062 3.93894 31.2124V30.9376C6.58543 32.5876 9.66311 33.6189 12.9249 33.7562C7.5702 29.7686 4.06207 22.9624 4.06207 15.2623C4.06207 11.1374 5.04668 7.35618 6.77015 4.05615C16.5564 17.5311 31.2665 26.331 47.7612 27.2936C47.4537 25.6436 47.2691 23.9251 47.2691 22.2063C47.2691 9.96864 56.132 0 67.1492 0C72.8732 0 78.043 2.68124 81.6746 7.01249C86.1674 6.05003 90.4758 4.1937 94.2921 1.65001C92.8144 6.80639 89.6758 11.1376 85.5521 13.8874C89.5527 13.4064 93.4304 12.1686 97 10.4501C94.2924 14.8499 90.9071 18.7685 87.0294 21.9312Z" fill="black"/>
</svg>
