<svg width="92" height="77" viewBox="0 0 92 77" fill="none" xmlns="http://www.w3.org/2000/svg">
<rect width="92" height="77" fill="white"/>
<path d="M90.0775 12.0479C89.0195 7.30558 85.902 3.57067 81.9437 2.30318C74.7692 0 46 0 46 0C46 0 17.2309 0 10.0562 2.30318C6.09797 3.57089 2.9805 7.30558 1.92243 12.0479C0 20.6436 0 38.5779 0 38.5779C0 38.5779 0 56.5118 1.92243 65.1078C2.9805 69.8501 6.09797 73.4294 10.0562 74.6968C17.2309 77 46 77 46 77C46 77 74.769 77 81.9437 74.6968C85.902 73.4294 89.0195 69.8501 90.0775 65.1078C92 56.5118 92 38.5779 92 38.5779C92 38.5779 92 20.6436 90.0775 12.0479ZM36.5908 54.8607V22.2949L60.6362 38.5782L36.5908 54.8607Z" fill="#EE1414"/>
</svg>
